# xmcd
#
# Track frame offsets:
#	150
#	6150
#	11027
#	16810
#	23710
#	29325
#	35135
#	41295
#	47005
#	52720
#	58172
#	63540
#	70327
#	76177
#	81817
#	96580
#	112062
#	125322
#	137452
#	152015
#	170412
#	171865
#	173295
#	174662
#	176140
#	177532
#	178970
#	180490
#	181907
#	183352
#	184752
#	186130
#	187537
#	190040
#	192575
#	194597
#	194925
#	195225
#	195665
#	196015
#	196315
#	196640
#	196970
#	197270
#	197780
#	198127
#	198427
#	198795
#	199175
#	199605
#	199972
#	200332
#	200655
#	200955
#	201365
#	201767
#	202172
#	202580
#	202907
#	203237
#	203592
#	204012
#	204385
#	204750
#	205135
#	205497
#	205865
#	206277
#	206705
#	207090
#	207482
#	207885
#	208502
#	209195
#	209922
#	210447
#	210982
#	211460
#	212077
#	212717
#	213575
#	214115
#	214675
#	215217
#	215785
#	216375
#	216895
#	217435
#	217955
#	218382
#	218995
#	219510
#	220080
#	220675
#	221187
#
# Disc length: 2956 seconds
#
# Revision: 1
# Processed by: cddbd v1.5.1PL0 Copyright (c) Steve Scherf et al.
# Submitted via: CDex 1.50Beta5
#
DISCID=070b8a5f
DTITLE=キングレコード - 効果音大全集 マルチメディア音ネタ5
DYEAR=1900
DGENRE=Data
TTITLE0=オープニングテーマ Chromatic
TTITLE1=オープニング Gala
TTITLE2=オープニング Active
TTITLE3=オープニング Freedom
TTITLE4=オープニング Intelligence
TTITLE5=オープニング Arc
TTITLE6=オープニング City Scape
TTITLE7=エンディング
TTITLE8=エンディング
TTITLE9=エンディング
TTITLE10=エンディング
TTITLE11=エンディング
TTITLE12=エンディング
TTITLE13=エンディング
TTITLE14=ナレーション
TTITLE15=ナレーション
TTITLE16=ナレーション
TTITLE17=ナレーション
TTITLE18=ナレーション
TTITLE19=ナレーション
TTITLE20=テーマジングル
TTITLE21=テーマジングル
TTITLE22=テーマジングル
TTITLE23=テーマジングル
TTITLE24=テーマジングル
TTITLE25=テーマジングル
TTITLE26=テーマジングル
TTITLE27=テーマジングル
TTITLE28=テーマジングル
TTITLE29=テーマジングル
TTITLE30=テーマジングル
TTITLE31=テーマジングル
TTITLE32=テーマジングル
TTITLE33=テーマジングル
TTITLE34=テーマジングル
TTITLE35=外国語Mc　もうすぐ始まります（英語）
TTITLE36=外国語Mc　もうすぐ始まります（仏語）
TTITLE37=外国語Mc　もうすぐ始まります（中国語）
TTITLE38=外国語Mc　もうすぐ始まります（英語）
TTITLE39=外国語Mc　もうすぐ始まります（仏語）
TTITLE40=外国語Mc　もうすぐ始まります（中国語）
TTITLE41=外国語Mc　もうすぐ始まります（英語）
TTITLE42=外国語Mc　もうすぐ始まります
TTITLE43=外国語Mc　もうすぐ始まります（英語）
TTITLE44=外国語Mc　もうすぐ始まります（英語）
TTITLE45=外国語Mc　もうすぐ始まります（英語）
TTITLE46=外国語Mc　もうすぐ始まります（英語）
TTITLE47=外国語Mc　さあご覧ください
TTITLE48=外国語Mc　さあご覧ください
TTITLE49=外国語Mc　さあご覧ください
TTITLE50=外国語Mc　さあご覧ください
TTITLE51=外国語Mc　さあご覧ください
TTITLE52=外国語Mc　さあご覧ください
TTITLE53=外国語Mc　さあご覧ください
TTITLE54=外国語Mc　さあご覧ください
TTITLE55=外国語Mc　さあご覧ください
TTITLE56=外国語Mc　さあご覧ください
TTITLE57=外国語Mc　さあご覧ください
TTITLE58=外国語Mc　さあご覧ください
TTITLE59=外国語Mc　もう少し前に来てください
TTITLE60=外国語Mc　もう少し前に来てください
TTITLE61=外国語Mc　もう少し前に来てください
TTITLE62=外国語Mc　もう少し前に来てください
TTITLE63=外国語Mc　もう少し前に来てください
TTITLE64=外国語Mc　もう少し前に来てください
TTITLE65=外国語Mc　もう少し前に来てください
TTITLE66=外国語Mc　もう少し前に来てください
TTITLE67=外国語Mc　もう少し前に来てください
TTITLE68=外国語Mc　もう少し前に来てください
TTITLE69=外国語Mc　もう少し前に来てください
TTITLE70=外国語Mc　もう少し前に来てください
TTITLE71=皆さん、足元に気をつけてお帰りください
TTITLE72=皆さん、足元に気をつけてお帰りください
TTITLE73=皆さん、足元に気をつけてお帰りください
TTITLE74=皆さん、足元に気をつけてお帰りください
TTITLE75=皆さん、足元に気をつけてお帰りください
TTITLE76=皆さん、足元に気をつけてお帰りください
TTITLE77=皆さん、足元に気をつけてお帰りください
TTITLE78=皆さん、足元に気をつけてお帰りください
TTITLE79=皆さん、足元に気をつけてお帰りください
TTITLE80=皆さん、足元に気をつけてお帰りください
TTITLE81=皆さん、足元に気をつけてお帰りください
TTITLE82=皆さん、足元に気をつけてお帰りください
TTITLE83=ここで短い休憩をいただきますので、しばらくの間お待ちください
TTITLE84=ここで短い休憩をいただきますので、しばらくの間お待ちください
TTITLE85=ここで短い休憩をいただきますので、しばらくの間お待ちください
TTITLE86=ここで短い休憩をいただきますので、しばらくの間お待ちください
TTITLE87=ここで短い休憩をいただきますので、しばらくの間お待ちください
TTITLE88=ここで短い休憩をいただきますので、しばらくの間お待ちください
TTITLE89=ここで短い休憩をいただきますので、しばらくの間お待ちください
TTITLE90=ここで短い休憩をいただきますので、しばらくの間お待ちください
TTITLE91=ここで短い
TTITLE92=ここで短い休憩をいただきますので、しばらくの間お待ちください
TTITLE93=ここで短い休憩をいただきますので、しばらくの間お待ちください
TTITLE94=ここで短い休憩をいただきますので、しばらくの間お待ちください
EXTD=
EXTT0=
EXTT1=
EXTT2=
EXTT3=
EXTT4=
EXTT5=
EXTT6=
EXTT7=
EXTT8=
EXTT9=
EXTT10=
EXTT11=
EXTT12=
EXTT13=
EXTT14=
EXTT15=
EXTT16=
EXTT17=
EXTT18=
EXTT19=
EXTT20=
EXTT21=
EXTT22=
EXTT23=
EXTT24=
EXTT25=
EXTT26=
EXTT27=
EXTT28=
EXTT29=
EXTT30=
EXTT31=
EXTT32=
EXTT33=
EXTT34=
EXTT35=
EXTT36=
EXTT37=
EXTT38=
EXTT39=
EXTT40=
EXTT41=
EXTT42=
EXTT43=
EXTT44=
EXTT45=
EXTT46=
EXTT47=
EXTT48=
EXTT49=
EXTT50=
EXTT51=
EXTT52=
EXTT53=
EXTT54=
EXTT55=
EXTT56=
EXTT57=
EXTT58=
EXTT59=
EXTT60=
EXTT61=
EXTT62=
EXTT63=
EXTT64=
EXTT65=
EXTT66=
EXTT67=
EXTT68=
EXTT69=
EXTT70=
EXTT71=
EXTT72=
EXTT73=
EXTT74=
EXTT75=
EXTT76=
EXTT77=
EXTT78=
EXTT79=
EXTT80=
EXTT81=
EXTT82=
EXTT83=
EXTT84=
EXTT85=
EXTT86=
EXTT87=
EXTT88=
EXTT89=
EXTT90=
EXTT91=
EXTT92=
EXTT93=
EXTT94=
PLAYORDER=
